G04 #@! TF.FileFunction,Copper,L1,Top,Signal*
%FSLAX46Y46*%
G04 Gerber Fmt 4.6, Leading zero omitted, Abs format (unit mm)*
G04 Created by KiCad (PCBNEW 4.0.6) date Tuesday, May 30, 2017 'PMt' 03:14:41 PM*
%MOMM*%
%LPD*%
G01*
G04 APERTURE LIST*
%ADD10C,0.100000*%
%ADD11R,0.736600X2.219960*%
%ADD12C,1.750000*%
%ADD13C,0.600000*%
G04 APERTURE END LIST*
D10*
D11*
X172085000Y-108491020D03*
X172085000Y-111218980D03*
X163195000Y-108491020D03*
X163195000Y-111218980D03*
X164465000Y-108491020D03*
X164465000Y-111218980D03*
X165735000Y-108491020D03*
X165735000Y-111218980D03*
X167005000Y-108491020D03*
X167005000Y-111218980D03*
X154305000Y-111218980D03*
X154305000Y-108491020D03*
X153035000Y-111218980D03*
X153035000Y-108491020D03*
X151765000Y-111218980D03*
X151765000Y-108491020D03*
X150495000Y-111218980D03*
X150495000Y-108491020D03*
X149225000Y-111218980D03*
X149225000Y-108491020D03*
X173355000Y-111218980D03*
X173355000Y-108491020D03*
X170815000Y-111218980D03*
X170815000Y-108491020D03*
X169545000Y-111218980D03*
X169545000Y-108491020D03*
X168275000Y-111218980D03*
X168275000Y-108491020D03*
X161925000Y-111218980D03*
X161925000Y-108491020D03*
X142875000Y-108491020D03*
X142875000Y-111218980D03*
X144145000Y-108491020D03*
X144145000Y-111218980D03*
X145415000Y-108491020D03*
X145415000Y-111218980D03*
X146685000Y-108491020D03*
X146685000Y-111218980D03*
X147955000Y-108491020D03*
X147955000Y-111218980D03*
X155575000Y-108491020D03*
X155575000Y-111218980D03*
X156845000Y-108491020D03*
X156845000Y-111218980D03*
X158115000Y-108491020D03*
X158115000Y-111218980D03*
X159385000Y-108491020D03*
X159385000Y-111218980D03*
X160655000Y-108491020D03*
X160655000Y-111218980D03*
D12*
X174942500Y-109855000D03*
X141287500Y-109855000D03*
D13*
X172085000Y-108140000D03*
X172085000Y-111570000D03*
X163195000Y-108140000D03*
X163195000Y-111570000D03*
X164465000Y-108140000D03*
X164465000Y-111570000D03*
X165735000Y-108140000D03*
X165735000Y-111570000D03*
X167005000Y-108140000D03*
X167005000Y-111570000D03*
X154305000Y-111570000D03*
X154305000Y-108140000D03*
X153035000Y-111570000D03*
X153035000Y-108140000D03*
X151765000Y-111570000D03*
X151765000Y-108491020D03*
X150495000Y-111570000D03*
X150495000Y-108491020D03*
X149225000Y-111570000D03*
X149225000Y-108140000D03*
X173355000Y-111570000D03*
X173355000Y-108140000D03*
X170815000Y-111570000D03*
X170815000Y-108140000D03*
X169545000Y-111570000D03*
X169545000Y-108140000D03*
X168275000Y-111570000D03*
X168275000Y-108140000D03*
X161925000Y-111570000D03*
X161925000Y-108140000D03*
X142875000Y-108491020D03*
X142875000Y-111570000D03*
X144145000Y-108491020D03*
X144145000Y-111570000D03*
X145415000Y-108491020D03*
X145415000Y-111570000D03*
X146685000Y-108140000D03*
X146685000Y-111570000D03*
X147955000Y-108140000D03*
X147955000Y-111570000D03*
X155575000Y-108140000D03*
X155575000Y-111570000D03*
X156845000Y-108140000D03*
X156845000Y-111570000D03*
X158115000Y-108140000D03*
X158115000Y-111570000D03*
X159385000Y-108140000D03*
X159385000Y-111570000D03*
X160655000Y-108140000D03*
X160655000Y-111570000D03*
M02*
