M48
;DRILL file {KiCad 4.0.6} date Tuesday, May 30, 2017 'PMt' 03:14:46 PM
;FORMAT={-:-/ absolute / metric / decimal}
FMAT,2
METRIC,TZ
T1C0.400
T2C1.270
%
G90
G05
M71
T1
X142.875Y-108.491
X142.875Y-111.57
X144.145Y-108.491
X144.145Y-111.57
X145.415Y-108.491
X145.415Y-111.57
X146.685Y-108.14
X146.685Y-111.57
X147.955Y-108.14
X147.955Y-111.57
X149.225Y-108.14
X149.225Y-111.57
X150.495Y-108.491
X150.495Y-111.57
X151.765Y-108.491
X151.765Y-111.57
X153.035Y-108.14
X153.035Y-111.57
X154.305Y-108.14
X154.305Y-111.57
X155.575Y-108.14
X155.575Y-111.57
X156.845Y-108.14
X156.845Y-111.57
X158.115Y-108.14
X158.115Y-111.57
X159.385Y-108.14
X159.385Y-111.57
X160.655Y-108.14
X160.655Y-111.57
X161.925Y-108.14
X161.925Y-111.57
X163.195Y-108.14
X163.195Y-111.57
X164.465Y-108.14
X164.465Y-111.57
X165.735Y-108.14
X165.735Y-111.57
X167.005Y-108.14
X167.005Y-111.57
X168.275Y-108.14
X168.275Y-111.57
X169.545Y-108.14
X169.545Y-111.57
X170.815Y-108.14
X170.815Y-111.57
X172.085Y-108.14
X172.085Y-111.57
X173.355Y-108.14
X173.355Y-111.57
T2
X141.287Y-109.855
X174.942Y-109.855
T0
M30
